<mxfile host="app.diagrams.net" agent="Mozilla/5.0 (Windows NT 10.0; Win64; x64) AppleWebKit/537.36 (KHTML, like Gecko) Chrome/129.0.0.0 Safari/537.36" version="24.7.17">
  <diagram name="PÃ¡gina-1" id="PGvJ7YaxBcb3JJZYLfhu">
    <mxGraphModel dx="1050" dy="522" grid="1" gridSize="10" guides="1" tooltips="1" connect="1" arrows="1" fold="1" page="1" pageScale="1" pageWidth="827" pageHeight="1169" math="0" shadow="0">
      <root>
        <mxCell id="0" />
        <mxCell id="1" parent="0" />
        <mxCell id="PcM7yAwqfckMbdmHcBPO-1" value="Cliente" style="rounded=0;whiteSpace=wrap;html=1;" vertex="1" parent="1">
          <mxGeometry x="45" y="240" width="120" height="60" as="geometry" />
        </mxCell>
        <mxCell id="PcM7yAwqfckMbdmHcBPO-2" value="" style="endArrow=classic;html=1;rounded=0;exitX=1;exitY=0.5;exitDx=0;exitDy=0;" edge="1" parent="1" source="PcM7yAwqfckMbdmHcBPO-1" target="PcM7yAwqfckMbdmHcBPO-3">
          <mxGeometry width="50" height="50" relative="1" as="geometry">
            <mxPoint x="165" y="260" as="sourcePoint" />
            <mxPoint x="235" y="230" as="targetPoint" />
          </mxGeometry>
        </mxCell>
        <mxCell id="PcM7yAwqfckMbdmHcBPO-3" value="idCliente" style="ellipse;whiteSpace=wrap;html=1;align=center;fillColor=#f8cecc;strokeColor=#b85450;" vertex="1" parent="1">
          <mxGeometry x="205" y="190" width="80" height="30" as="geometry" />
        </mxCell>
        <mxCell id="PcM7yAwqfckMbdmHcBPO-4" value="CPF" style="ellipse;whiteSpace=wrap;html=1;align=center;" vertex="1" parent="1">
          <mxGeometry x="205" y="230" width="80" height="30" as="geometry" />
        </mxCell>
        <mxCell id="PcM7yAwqfckMbdmHcBPO-6" value="" style="endArrow=classic;html=1;rounded=0;entryX=0.08;entryY=0.81;entryDx=0;entryDy=0;entryPerimeter=0;" edge="1" parent="1" target="PcM7yAwqfckMbdmHcBPO-4">
          <mxGeometry width="50" height="50" relative="1" as="geometry">
            <mxPoint x="165" y="270" as="sourcePoint" />
            <mxPoint x="215" y="235" as="targetPoint" />
          </mxGeometry>
        </mxCell>
        <mxCell id="PcM7yAwqfckMbdmHcBPO-7" value="Nome" style="ellipse;whiteSpace=wrap;html=1;align=center;" vertex="1" parent="1">
          <mxGeometry x="205" y="270" width="80" height="30" as="geometry" />
        </mxCell>
        <mxCell id="PcM7yAwqfckMbdmHcBPO-8" value="" style="endArrow=classic;html=1;rounded=0;exitX=1;exitY=0.5;exitDx=0;exitDy=0;entryX=0;entryY=0.5;entryDx=0;entryDy=0;" edge="1" parent="1" source="PcM7yAwqfckMbdmHcBPO-1" target="PcM7yAwqfckMbdmHcBPO-7">
          <mxGeometry width="50" height="50" relative="1" as="geometry">
            <mxPoint x="175" y="270" as="sourcePoint" />
            <mxPoint x="223" y="282" as="targetPoint" />
          </mxGeometry>
        </mxCell>
        <mxCell id="PcM7yAwqfckMbdmHcBPO-9" value="Sexo" style="ellipse;whiteSpace=wrap;html=1;align=center;" vertex="1" parent="1">
          <mxGeometry x="205" y="310" width="80" height="30" as="geometry" />
        </mxCell>
        <mxCell id="PcM7yAwqfckMbdmHcBPO-10" value="" style="endArrow=classic;html=1;rounded=0;entryX=0;entryY=0.5;entryDx=0;entryDy=0;exitX=1;exitY=0.5;exitDx=0;exitDy=0;" edge="1" parent="1" source="PcM7yAwqfckMbdmHcBPO-1" target="PcM7yAwqfckMbdmHcBPO-9">
          <mxGeometry width="50" height="50" relative="1" as="geometry">
            <mxPoint x="155" y="270" as="sourcePoint" />
            <mxPoint x="175" y="300" as="targetPoint" />
          </mxGeometry>
        </mxCell>
        <mxCell id="PcM7yAwqfckMbdmHcBPO-12" value="Email" style="ellipse;whiteSpace=wrap;html=1;align=center;" vertex="1" parent="1">
          <mxGeometry x="205" y="352.93" width="90" height="40" as="geometry" />
        </mxCell>
        <mxCell id="PcM7yAwqfckMbdmHcBPO-13" value="" style="endArrow=classic;html=1;rounded=0;entryX=0;entryY=0;entryDx=0;entryDy=0;exitX=1;exitY=0.5;exitDx=0;exitDy=0;" edge="1" parent="1" source="PcM7yAwqfckMbdmHcBPO-1" target="PcM7yAwqfckMbdmHcBPO-12">
          <mxGeometry width="50" height="50" relative="1" as="geometry">
            <mxPoint x="165" y="270" as="sourcePoint" />
            <mxPoint x="213.18019484660522" y="355.85786437626905" as="targetPoint" />
          </mxGeometry>
        </mxCell>
        <mxCell id="PcM7yAwqfckMbdmHcBPO-14" value="Telefone" style="rounded=0;whiteSpace=wrap;html=1;" vertex="1" parent="1">
          <mxGeometry x="530" y="200" width="120" height="60" as="geometry" />
        </mxCell>
        <mxCell id="PcM7yAwqfckMbdmHcBPO-15" value="idTelefone" style="ellipse;whiteSpace=wrap;html=1;align=center;fillColor=#f8cecc;strokeColor=#b85450;" vertex="1" parent="1">
          <mxGeometry x="670" y="170" width="90" height="40" as="geometry" />
        </mxCell>
        <mxCell id="PcM7yAwqfckMbdmHcBPO-16" value="Numero" style="ellipse;whiteSpace=wrap;html=1;align=center;" vertex="1" parent="1">
          <mxGeometry x="670" y="220" width="90" height="40" as="geometry" />
        </mxCell>
        <mxCell id="PcM7yAwqfckMbdmHcBPO-19" value="" style="endArrow=classic;html=1;rounded=0;entryX=0;entryY=1;entryDx=0;entryDy=0;" edge="1" parent="1" target="PcM7yAwqfckMbdmHcBPO-15">
          <mxGeometry width="50" height="50" relative="1" as="geometry">
            <mxPoint x="650" y="220" as="sourcePoint" />
            <mxPoint x="700" y="170" as="targetPoint" />
          </mxGeometry>
        </mxCell>
        <mxCell id="PcM7yAwqfckMbdmHcBPO-20" value="" style="endArrow=classic;html=1;rounded=0;entryX=0;entryY=0;entryDx=0;entryDy=0;" edge="1" parent="1" target="PcM7yAwqfckMbdmHcBPO-16">
          <mxGeometry width="50" height="50" relative="1" as="geometry">
            <mxPoint x="650" y="220" as="sourcePoint" />
            <mxPoint x="700" y="170" as="targetPoint" />
          </mxGeometry>
        </mxCell>
        <mxCell id="PcM7yAwqfckMbdmHcBPO-21" value="Endereco" style="html=1;dashed=0;whiteSpace=wrap;" vertex="1" parent="1">
          <mxGeometry x="30" y="490" width="130" height="70" as="geometry" />
        </mxCell>
        <mxCell id="PcM7yAwqfckMbdmHcBPO-25" value="idEndereco" style="ellipse;whiteSpace=wrap;html=1;align=center;fillColor=#f8cecc;strokeColor=#b85450;" vertex="1" parent="1">
          <mxGeometry x="200" y="440" width="90" height="40" as="geometry" />
        </mxCell>
        <mxCell id="PcM7yAwqfckMbdmHcBPO-26" value="" style="endArrow=classic;html=1;rounded=0;entryX=0.269;entryY=0.95;entryDx=0;entryDy=0;entryPerimeter=0;exitX=1.006;exitY=0.606;exitDx=0;exitDy=0;exitPerimeter=0;" edge="1" parent="1" source="PcM7yAwqfckMbdmHcBPO-21" target="PcM7yAwqfckMbdmHcBPO-25">
          <mxGeometry width="50" height="50" relative="1" as="geometry">
            <mxPoint x="160" y="530" as="sourcePoint" />
            <mxPoint x="210" y="480" as="targetPoint" />
          </mxGeometry>
        </mxCell>
        <mxCell id="PcM7yAwqfckMbdmHcBPO-29" value="Rua" style="ellipse;whiteSpace=wrap;html=1;align=center;" vertex="1" parent="1">
          <mxGeometry x="200" y="490" width="90" height="40" as="geometry" />
        </mxCell>
        <mxCell id="PcM7yAwqfckMbdmHcBPO-30" value="" style="endArrow=classic;html=1;rounded=0;entryX=0;entryY=0;entryDx=0;entryDy=0;exitX=1.012;exitY=0.617;exitDx=0;exitDy=0;exitPerimeter=0;" edge="1" parent="1" source="PcM7yAwqfckMbdmHcBPO-21" target="PcM7yAwqfckMbdmHcBPO-29">
          <mxGeometry width="50" height="50" relative="1" as="geometry">
            <mxPoint x="160" y="530" as="sourcePoint" />
            <mxPoint x="210" y="480" as="targetPoint" />
          </mxGeometry>
        </mxCell>
        <mxCell id="PcM7yAwqfckMbdmHcBPO-31" value="Bairro" style="ellipse;whiteSpace=wrap;html=1;align=center;" vertex="1" parent="1">
          <mxGeometry x="195" y="540" width="100" height="40" as="geometry" />
        </mxCell>
        <mxCell id="PcM7yAwqfckMbdmHcBPO-32" value="" style="endArrow=classic;html=1;rounded=0;entryX=0;entryY=0;entryDx=0;entryDy=0;" edge="1" parent="1" target="PcM7yAwqfckMbdmHcBPO-31">
          <mxGeometry width="50" height="50" relative="1" as="geometry">
            <mxPoint x="160" y="530" as="sourcePoint" />
            <mxPoint x="210" y="510" as="targetPoint" />
          </mxGeometry>
        </mxCell>
        <mxCell id="PcM7yAwqfckMbdmHcBPO-33" value="Cidade" style="ellipse;whiteSpace=wrap;html=1;align=center;" vertex="1" parent="1">
          <mxGeometry x="195" y="590" width="100" height="40" as="geometry" />
        </mxCell>
        <mxCell id="PcM7yAwqfckMbdmHcBPO-34" value="" style="endArrow=classic;html=1;rounded=0;entryX=0;entryY=0;entryDx=0;entryDy=0;exitX=1.031;exitY=0.629;exitDx=0;exitDy=0;exitPerimeter=0;" edge="1" parent="1" source="PcM7yAwqfckMbdmHcBPO-21" target="PcM7yAwqfckMbdmHcBPO-33">
          <mxGeometry width="50" height="50" relative="1" as="geometry">
            <mxPoint x="160" y="530" as="sourcePoint" />
            <mxPoint x="210" y="490" as="targetPoint" />
          </mxGeometry>
        </mxCell>
        <mxCell id="PcM7yAwqfckMbdmHcBPO-35" value="Estado" style="ellipse;whiteSpace=wrap;html=1;align=center;" vertex="1" parent="1">
          <mxGeometry x="195" y="650" width="100" height="40" as="geometry" />
        </mxCell>
        <mxCell id="PcM7yAwqfckMbdmHcBPO-36" value="" style="endArrow=classic;html=1;rounded=0;exitX=1.037;exitY=0.617;exitDx=0;exitDy=0;exitPerimeter=0;entryX=0;entryY=0;entryDx=0;entryDy=0;" edge="1" parent="1" source="PcM7yAwqfckMbdmHcBPO-21" target="PcM7yAwqfckMbdmHcBPO-35">
          <mxGeometry width="50" height="50" relative="1" as="geometry">
            <mxPoint x="360" y="590" as="sourcePoint" />
            <mxPoint x="410" y="540" as="targetPoint" />
          </mxGeometry>
        </mxCell>
        <mxCell id="PcM7yAwqfckMbdmHcBPO-39" value="POSSUI" style="strokeWidth=2;html=1;shape=mxgraph.flowchart.decision;whiteSpace=wrap;" vertex="1" parent="1">
          <mxGeometry x="350" y="157.07" width="104" height="52.93" as="geometry" />
        </mxCell>
        <mxCell id="PcM7yAwqfckMbdmHcBPO-44" value="" style="endArrow=none;html=1;rounded=0;" edge="1" parent="1" target="PcM7yAwqfckMbdmHcBPO-1">
          <mxGeometry width="50" height="50" relative="1" as="geometry">
            <mxPoint x="100" y="80" as="sourcePoint" />
            <mxPoint x="440" y="280" as="targetPoint" />
          </mxGeometry>
        </mxCell>
        <mxCell id="PcM7yAwqfckMbdmHcBPO-45" value="" style="endArrow=none;html=1;rounded=0;exitX=0.5;exitY=0;exitDx=0;exitDy=0;exitPerimeter=0;" edge="1" parent="1" source="PcM7yAwqfckMbdmHcBPO-39">
          <mxGeometry width="50" height="50" relative="1" as="geometry">
            <mxPoint x="400" y="160" as="sourcePoint" />
            <mxPoint x="400" y="80" as="targetPoint" />
          </mxGeometry>
        </mxCell>
        <mxCell id="PcM7yAwqfckMbdmHcBPO-47" value="" style="endArrow=none;html=1;rounded=0;" edge="1" parent="1">
          <mxGeometry width="50" height="50" relative="1" as="geometry">
            <mxPoint x="100" y="80" as="sourcePoint" />
            <mxPoint x="400" y="80" as="targetPoint" />
          </mxGeometry>
        </mxCell>
        <mxCell id="PcM7yAwqfckMbdmHcBPO-48" value="" style="endArrow=none;html=1;rounded=0;entryX=0.5;entryY=1;entryDx=0;entryDy=0;entryPerimeter=0;" edge="1" parent="1" target="PcM7yAwqfckMbdmHcBPO-39">
          <mxGeometry width="50" height="50" relative="1" as="geometry">
            <mxPoint x="402" y="240" as="sourcePoint" />
            <mxPoint x="440" y="280" as="targetPoint" />
          </mxGeometry>
        </mxCell>
        <mxCell id="PcM7yAwqfckMbdmHcBPO-50" value="" style="endArrow=none;html=1;rounded=0;exitX=-0.02;exitY=0.633;exitDx=0;exitDy=0;exitPerimeter=0;" edge="1" parent="1" source="PcM7yAwqfckMbdmHcBPO-14">
          <mxGeometry width="50" height="50" relative="1" as="geometry">
            <mxPoint x="440" y="393" as="sourcePoint" />
            <mxPoint x="400" y="238" as="targetPoint" />
          </mxGeometry>
        </mxCell>
        <mxCell id="PcM7yAwqfckMbdmHcBPO-51" value="(0, n)" style="text;html=1;align=center;verticalAlign=middle;resizable=0;points=[];autosize=1;strokeColor=none;fillColor=none;" vertex="1" parent="1">
          <mxGeometry x="475" y="208" width="50" height="30" as="geometry" />
        </mxCell>
        <mxCell id="PcM7yAwqfckMbdmHcBPO-52" value="(0, n)" style="text;html=1;align=center;verticalAlign=middle;resizable=0;points=[];autosize=1;strokeColor=none;fillColor=none;" vertex="1" parent="1">
          <mxGeometry x="110" y="210" width="50" height="30" as="geometry" />
        </mxCell>
        <mxCell id="PcM7yAwqfckMbdmHcBPO-54" value="POSSUI" style="strokeWidth=2;html=1;shape=mxgraph.flowchart.decision;whiteSpace=wrap;" vertex="1" parent="1">
          <mxGeometry x="53" y="370" width="104" height="52.93" as="geometry" />
        </mxCell>
        <mxCell id="PcM7yAwqfckMbdmHcBPO-55" value="" style="endArrow=none;html=1;rounded=0;entryX=0.5;entryY=1;entryDx=0;entryDy=0;exitX=0.5;exitY=0;exitDx=0;exitDy=0;exitPerimeter=0;" edge="1" parent="1" source="PcM7yAwqfckMbdmHcBPO-54" target="PcM7yAwqfckMbdmHcBPO-1">
          <mxGeometry width="50" height="50" relative="1" as="geometry">
            <mxPoint x="390" y="330" as="sourcePoint" />
            <mxPoint x="440" y="280" as="targetPoint" />
          </mxGeometry>
        </mxCell>
        <mxCell id="PcM7yAwqfckMbdmHcBPO-56" value="" style="endArrow=none;html=1;rounded=0;exitX=0.585;exitY=-0.034;exitDx=0;exitDy=0;entryX=0.5;entryY=1;entryDx=0;entryDy=0;entryPerimeter=0;exitPerimeter=0;" edge="1" parent="1" source="PcM7yAwqfckMbdmHcBPO-21" target="PcM7yAwqfckMbdmHcBPO-54">
          <mxGeometry width="50" height="50" relative="1" as="geometry">
            <mxPoint x="390" y="330" as="sourcePoint" />
            <mxPoint x="440" y="280" as="targetPoint" />
          </mxGeometry>
        </mxCell>
        <mxCell id="PcM7yAwqfckMbdmHcBPO-57" value="(0, n)" style="text;html=1;align=center;verticalAlign=middle;resizable=0;points=[];autosize=1;strokeColor=none;fillColor=none;" vertex="1" parent="1">
          <mxGeometry x="107" y="300" width="50" height="30" as="geometry" />
        </mxCell>
        <mxCell id="PcM7yAwqfckMbdmHcBPO-58" value="(1, n)" style="text;html=1;align=center;verticalAlign=middle;resizable=0;points=[];autosize=1;strokeColor=none;fillColor=none;" vertex="1" parent="1">
          <mxGeometry x="107" y="460" width="50" height="30" as="geometry" />
        </mxCell>
        <mxCell id="PcM7yAwqfckMbdmHcBPO-59" value="FormulÃ¡rio" style="rounded=1;whiteSpace=wrap;html=1;" vertex="1" parent="1">
          <mxGeometry x="53" y="890" width="120" height="60" as="geometry" />
        </mxCell>
        <mxCell id="PcM7yAwqfckMbdmHcBPO-60" value="" style="endArrow=classic;html=1;rounded=0;exitX=1;exitY=0.5;exitDx=0;exitDy=0;" edge="1" parent="1" source="PcM7yAwqfckMbdmHcBPO-59">
          <mxGeometry width="50" height="50" relative="1" as="geometry">
            <mxPoint x="180" y="930" as="sourcePoint" />
            <mxPoint x="270" y="920" as="targetPoint" />
          </mxGeometry>
        </mxCell>
        <mxCell id="PcM7yAwqfckMbdmHcBPO-61" value="Business Manager" style="rounded=1;whiteSpace=wrap;html=1;" vertex="1" parent="1">
          <mxGeometry x="270" y="890" width="120" height="60" as="geometry" />
        </mxCell>
        <mxCell id="PcM7yAwqfckMbdmHcBPO-62" value="API Rest" style="rounded=1;whiteSpace=wrap;html=1;" vertex="1" parent="1">
          <mxGeometry x="500" y="890" width="130" height="60" as="geometry" />
        </mxCell>
        <mxCell id="PcM7yAwqfckMbdmHcBPO-67" value="AplicaÃ§Ã£o" style="text;html=1;align=center;verticalAlign=middle;resizable=0;points=[];autosize=1;strokeColor=none;fillColor=none;" vertex="1" parent="1">
          <mxGeometry x="520" y="948" width="80" height="30" as="geometry" />
        </mxCell>
        <mxCell id="PcM7yAwqfckMbdmHcBPO-71" value="" style="endArrow=classic;html=1;rounded=0;exitX=1;exitY=0.5;exitDx=0;exitDy=0;entryX=0;entryY=0;entryDx=0;entryDy=0;" edge="1" parent="1" source="PcM7yAwqfckMbdmHcBPO-61" target="PcM7yAwqfckMbdmHcBPO-62">
          <mxGeometry width="50" height="50" relative="1" as="geometry">
            <mxPoint x="390" y="830" as="sourcePoint" />
            <mxPoint x="440" y="780" as="targetPoint" />
          </mxGeometry>
        </mxCell>
        <mxCell id="PcM7yAwqfckMbdmHcBPO-72" value="NotificaÃ§Ã£o&lt;div&gt;&lt;br&gt;&lt;/div&gt;" style="text;html=1;align=center;verticalAlign=middle;resizable=0;points=[];autosize=1;strokeColor=none;fillColor=none;" vertex="1" parent="1">
          <mxGeometry x="390" y="870" width="80" height="40" as="geometry" />
        </mxCell>
        <mxCell id="PcM7yAwqfckMbdmHcBPO-73" value="" style="endArrow=classic;html=1;rounded=0;exitX=0;exitY=0.75;exitDx=0;exitDy=0;entryX=1;entryY=0.75;entryDx=0;entryDy=0;" edge="1" parent="1" source="PcM7yAwqfckMbdmHcBPO-62" target="PcM7yAwqfckMbdmHcBPO-61">
          <mxGeometry width="50" height="50" relative="1" as="geometry">
            <mxPoint x="390" y="830" as="sourcePoint" />
            <mxPoint x="440" y="780" as="targetPoint" />
          </mxGeometry>
        </mxCell>
        <mxCell id="PcM7yAwqfckMbdmHcBPO-74" value="Request" style="text;html=1;align=center;verticalAlign=middle;resizable=0;points=[];autosize=1;strokeColor=none;fillColor=none;" vertex="1" parent="1">
          <mxGeometry x="425" y="908" width="70" height="30" as="geometry" />
        </mxCell>
        <mxCell id="PcM7yAwqfckMbdmHcBPO-75" value="" style="endArrow=classic;html=1;rounded=0;exitX=0.75;exitY=1;exitDx=0;exitDy=0;entryX=0;entryY=1;entryDx=0;entryDy=0;" edge="1" parent="1" source="PcM7yAwqfckMbdmHcBPO-61" target="PcM7yAwqfckMbdmHcBPO-62">
          <mxGeometry width="50" height="50" relative="1" as="geometry">
            <mxPoint x="390" y="830" as="sourcePoint" />
            <mxPoint x="480" y="990" as="targetPoint" />
            <Array as="points" />
          </mxGeometry>
        </mxCell>
        <mxCell id="PcM7yAwqfckMbdmHcBPO-77" value="Dados" style="text;html=1;align=center;verticalAlign=middle;resizable=0;points=[];autosize=1;strokeColor=none;fillColor=none;" vertex="1" parent="1">
          <mxGeometry x="390" y="948" width="60" height="30" as="geometry" />
        </mxCell>
      </root>
    </mxGraphModel>
  </diagram>
</mxfile>
